<?xml version="1.0" encoding="utf-8"?>
<!-- Generator: Adobe Illustrator 16.0.0, SVG Export Plug-In . SVG Version: 6.00 Build 0)  -->
<!DOCTYPE svg PUBLIC "-//W3C//DTD SVG 1.1//EN" "http://www.w3.org/Graphics/SVG/1.1/DTD/svg11.dtd">
<svg version="1.1" id="Layer_1" xmlns="http://www.w3.org/2000/svg" xmlns:xlink="http://www.w3.org/1999/xlink" x="0px" y="0px"
	 width="32px" height="32px" viewBox="0 0 32 32" enable-background="new 0 0 32 32" xml:space="preserve">
<g>
	<path fill="#444444" d="M15.343-2.333c-0.024,0.02-0.688,0.731-1.472,1.586l-1.425,1.552l-0.57,2.299l-1.592,0.029
		c-2.959,0.064-4.708,0.31-5.03,0.708C5.192,3.916,5.201,3.94,5.31,4.038c0.774,0.688,6.888,0.889,9.715,0.324
		c1-0.202,1.258-0.452,0.711-0.693c-0.412-0.186-1.927-0.442-2.606-0.442c-0.185,0-0.229-0.015-0.229-0.088
		c0-0.044,0.104-0.496,0.229-0.998l0.223-0.913l1.33-1.454c0.731-0.801,1.334-1.494,1.345-1.533
		C16.075-1.979,15.51-2.451,15.343-2.333z M5.301,4.477c0,0.147,0.575,5.737,0.604,5.825c0.009,0.04,0.057-0.035,0.104-0.177
		c0.423-1.223,1.263-2.26,1.976-2.432c0.347-0.084,0.608,0.004,0.889,0.294c0.308,0.32,0.366,0.664,0.129,0.796
		C8.883,8.847,8.77,8.759,8.617,8.474C8.29,7.869,7.682,8.188,7.026,9.318c-0.693,1.189-0.874,2.506-0.347,2.506
		c0.195,0,0.665-0.384,0.993-0.806c0.224-0.295,0.308-0.457,0.433-0.835C8.185,9.928,8.28,9.692,8.318,9.662
		c0.038-0.028,0.123-0.049,0.199-0.039C8.641,9.639,8.65,9.658,8.664,9.869c0.01,0.162-0.027,0.358-0.133,0.663
		c-0.137,0.403-0.294,0.919-0.589,1.931c-0.066,0.231-0.152,0.466-0.195,0.526c-0.104,0.152-0.251,0.142-0.318-0.015
		c-0.048-0.103-0.034-0.212,0.1-0.673c0.086-0.304,0.171-0.594,0.185-0.648c0.015-0.063-0.095,0.02-0.299,0.216
		c-0.475,0.457-0.941,0.648-1.216,0.496c-0.081-0.044-0.091-0.035-0.091,0.083c0,0.374,0.342,3.724,0.384,3.777
		c0.143,0.177,1.155,0.476,2.181,0.644c0.783,0.127,3.017,0.127,3.8,0c0.674-0.112,1.41-0.29,1.767-0.427
		c0.503-0.192,0.442,0.02,0.726-2.53c0.138-1.243,0.248-2.27,0.238-2.275c-0.009-0.01-0.162,0.107-0.337,0.26
		c-0.38,0.334-0.632,0.462-0.913,0.466c-0.251,0-0.38-0.064-0.436-0.225c-0.067-0.172,0.023-0.374,0.384-0.836
		c0.404-0.515,0.471-0.614,0.471-0.717c0-0.221-0.491,0.009-0.77,0.364c-0.09,0.118-0.224,0.31-0.293,0.428
		c-0.162,0.26-0.58,1.247-0.789,1.862c-0.162,0.476-0.313,0.697-0.471,0.697c-0.09,0-0.243-0.118-0.243-0.187
		c0-0.129,0.152-0.526,0.433-1.159c0.181-0.402,0.328-0.743,0.328-0.752c0-0.009-0.091,0.055-0.204,0.147
		c-0.271,0.232-0.57,0.378-0.756,0.378c-0.18,0-0.37-0.118-0.37-0.225c0-0.089,0.009-0.093-0.29,0.079
		c-0.452,0.254-0.708,0.161-0.708-0.266v-0.196l-0.194,0.211c-0.356,0.378-0.84,0.51-1.106,0.294
		c-0.171-0.138-0.167-0.462,0.015-1.021c0.327-1.002,0.579-1.395,0.802-1.247c0.138,0.089,0.114,0.231-0.104,0.697
		c-0.375,0.801-0.399,1.179-0.066,1.081c0.318-0.094,0.699-0.609,0.964-1.296c0.072-0.192,0.161-0.384,0.205-0.433
		c0.104-0.123,0.262-0.088,0.314,0.068c0.034,0.103,0,0.24-0.185,0.712c-0.152,0.383-0.232,0.658-0.232,0.805
		c-0.005,0.211,0,0.221,0.133,0.211c0.171-0.015,0.446-0.201,0.483-0.333c0.148-0.496,1.244-3.267,1.33-3.365
		c0.095-0.099,0.133-0.113,0.243-0.069c0.081,0.029,0.137,0.089,0.147,0.153c0.009,0.059-0.081,0.333-0.199,0.614
		c-0.466,1.115-1.073,2.726-1.073,2.849c0,0.079,0.023,0.137,0.047,0.137c0.114,0,0.428-0.206,0.769-0.506
		c0.304-0.274,0.375-0.364,0.442-0.584c0.181-0.57,0.313-0.732,0.508-0.625c0.076,0.044,0.09,0.088,0.071,0.221
		c-0.014,0.094-0.014,0.167,0,0.167c0.015,0,0.123-0.089,0.238-0.201c0.362-0.339,0.67-0.423,0.954-0.241
		c0.133,0.083,0.152,0.123,0.152,0.31c0,0.256-0.189,0.605-0.589,1.09c-0.147,0.177-0.266,0.344-0.266,0.374
		c0,0.024,0.048,0.044,0.11,0.044c0.104,0,0.902-0.634,1.077-0.855c0.053-0.068,0.162-0.973,0.414-3.364
		c0.186-1.798,0.337-3.277,0.329-3.282c-0.005-0.009-0.129,0.029-0.278,0.083c-0.369,0.133-1.172,0.275-2.137,0.377
		C12.514,4.94,8.976,4.955,7.94,4.856C6.976,4.763,6.044,4.61,5.65,4.479L5.304,4.365v0.107L5.301,4.477z M6.727,16.662
		c0,0.011,0.152,0.286,0.333,0.61l0.337,0.595l0.138,1.974l0.143,1.979l0.143,0.128c0.356,0.315,1.211,0.491,2.541,0.521
		c1.512,0.035,2.689-0.161,3.074-0.521l0.152-0.138l0.109-1.994l0.109-1.989l0.309-0.561c0.17-0.305,0.308-0.57,0.308-0.59
		c0-0.015-0.142,0.02-0.323,0.084c-0.642,0.227-1.891,0.428-3.002,0.491c-1.235,0.069-3.149-0.172-4.118-0.521
		c-0.138-0.049-0.251-0.078-0.251-0.069H6.727z"/>
</g>
</svg>
