<?xml version="1.0" encoding="utf-8"?>
<!-- Generator: Adobe Illustrator 16.0.0, SVG Export Plug-In . SVG Version: 6.00 Build 0)  -->
<!DOCTYPE svg PUBLIC "-//W3C//DTD SVG 1.1//EN" "http://www.w3.org/Graphics/SVG/1.1/DTD/svg11.dtd">
<svg version="1.1" id="Layer_1" xmlns="http://www.w3.org/2000/svg" xmlns:xlink="http://www.w3.org/1999/xlink" x="0px" y="0px"
	 width="34px" height="32px" viewBox="0 0 34 32" enable-background="new 0 0 34 32" xml:space="preserve">
<g>
	<path fill="#444444" d="M15.711,7.143c0.606,0,1.102-0.499,1.102-1.111c0-0.611-0.496-1.11-1.102-1.11
		c-0.605,0-1.101,0.499-1.101,1.11C14.61,6.649,15.101,7.143,15.711,7.143z"/>
	<path fill="#444444" d="M14.635,8.116h2.129v8.142h-2.129V8.116z"/>
	<path fill="#444444" d="M7.861,13.527h2.88l0.779,2.727h2.181L10.534,5.558H7.888v1.056l-2.777,9.641h1.972L7.861,13.527z
		 M9.289,7.461l1.064,4.196H8.225L9.289,7.461z"/>
	<path fill="#444444" d="M-0.554-0.529v23.943h24.045V-0.529H-0.554z M21.688,21.529H1.284V1.356h20.405V21.529z"/>
</g>
</svg>
