<?xml version="1.0" encoding="utf-8"?>
<!-- Generator: Adobe Illustrator 16.0.0, SVG Export Plug-In . SVG Version: 6.00 Build 0)  -->
<!DOCTYPE svg PUBLIC "-//W3C//DTD SVG 1.1//EN" "http://www.w3.org/Graphics/SVG/1.1/DTD/svg11.dtd">
<svg version="1.1" id="Layer_1" xmlns="http://www.w3.org/2000/svg" xmlns:xlink="http://www.w3.org/1999/xlink" x="0px" y="0px"
	 width="34px" height="32px" viewBox="0 0 34 32" enable-background="new 0 0 34 32" xml:space="preserve">
<g>
	<path fill="#444444" d="M16.234,7.69c0.605,0,1.1-0.5,1.1-1.114c0-0.613-0.494-1.113-1.1-1.113s-1.1,0.5-1.1,1.113
		C15.135,7.194,15.625,7.69,16.234,7.69z"/>
	<path fill="#444444" d="M15.16,8.665h2.125v8.16H15.16V8.665z"/>
	<path fill="#444444" d="M8.398,14.089h2.875l0.777,2.733h2.177L11.066,6.101H8.426v1.058l-2.771,9.664h1.968L8.398,14.089z
		 M9.823,8.009l1.063,4.205H8.762L9.823,8.009z"/>
	<path fill="#444444" d="M0,0v24h24V0H0z M22.199,22.11H1.833V1.889h20.366V22.11z"/>
</g>
</svg>
